<svg width="49" height="50" viewBox="0 0 49 50" fill="none" xmlns="http://www.w3.org/2000/svg">
<g clip-path="url(#clip0_145_4517)">
<path d="M23.6425 21.0269H4.85362C2.17874 21.0269 0 23.1961 0 25.8593L0.0431433 25.9023C0.0431433 28.5655 2.22188 30.7348 4.89677 30.7348H11.9938L1.4453 41.7528C-0.453005 43.6214 -0.453005 46.6927 1.4453 48.5827C3.32204 50.4727 6.40678 50.4727 8.30509 48.5827L19.3066 37.0707V45.1677C19.3066 47.831 21.4854 50.0002 24.1603 50.0002C26.8351 50.0002 29.0139 47.8525 29.0139 45.1677V21.0483H23.6425V21.0269Z" fill="#FE5101"/>
<path d="M24.6133 28.9734H43.4022C46.0771 28.9734 48.2558 26.8041 48.2558 24.1409L48.2127 24.0979C48.2127 21.4347 46.034 19.2655 43.3591 19.2655H36.262L46.789 8.22594C48.6873 6.35738 48.6873 3.28608 46.789 1.39604C44.9122 -0.493993 41.8275 -0.493993 39.9292 1.39604L28.9276 12.9081V4.81099C28.9492 2.19071 26.7705 0.021471 24.0956 0.021471C21.4207 0.021471 19.2419 2.16924 19.2419 4.85395V28.9734H24.6133Z" fill="#1A00F3"/>
</g>
<defs>
<clipPath id="clip0_145_4517">
<rect width="48.2558" height="50" fill="white"/>
</clipPath>
</defs>
</svg>
