<svg width="707" height="705" viewBox="0 0 707 705" fill="none" xmlns="http://www.w3.org/2000/svg">
    <mask id="mask0_637_2583" style="mask-type:alpha" maskUnits="userSpaceOnUse" x="0" y="0" width="707" height="705">
        <path d="M5.53378e-05 130.34L3.53678e-05 587.201C3.25289e-05 652.147 52.8263 705 117.74 705L118.635 704.104C183.549 704.104 236.375 651.252 236.375 586.306L236.375 413.863L505.879 669.616C551.543 715.75 626.305 715.75 672.417 669.616C718.528 623.93 718.528 549.13 672.417 502.996L391.273 235.597L588.7 235.597C653.614 235.597 706.44 182.745 706.44 117.799C706.44 52.8526 654.106 -2.31205e-06 588.7 -5.17104e-06L6.10352e-05 -3.09039e-05L5.53378e-05 130.34Z" fill="#CFF54D"/>
    </mask>
    <g mask="url(#mask0_637_2583)">
        <rect x="-77" y="8" width="828" height="697" fill="#CFF54D"/>
    </g>
</svg>
