<svg width="340" height="460" viewBox="0 0 340 460" fill="none" xmlns="http://www.w3.org/2000/svg">
    <path d="M3.15317e-05 85.0445L3.50865e-05 383.139C3.55918e-05 425.515 34.4455 460 76.7725 460C119.1 460 154.129 424.93 154.129 382.554L154.129 270.038L329.859 436.912C359.634 467.014 408.383 467.014 438.45 436.912C468.517 407.103 468.517 358.297 438.45 328.196L255.13 153.723L383.863 153.723C426.19 153.723 460.635 119.238 460.635 76.8615C460.635 34.4854 426.511 4.1128e-07 383.863 9.19854e-07L3.05176e-05 5.49737e-06L3.15317e-05 85.0445Z" fill="#CFF54D"/>
</svg>
