<svg width="717" height="132" viewBox="0 0 717 132" fill="none" xmlns="http://www.w3.org/2000/svg">
    <path d="M33.7569 83.7657C32.9252 82.8827 31.9276 82.1723 30.8212 81.6749C29.7147 81.1776 28.5212 80.9032 27.3087 80.8672C26.0962 80.8313 24.8884 81.0346 23.7545 81.4656C22.6206 81.8966 21.5827 82.5467 20.7001 83.3789L18.8685 85.1051L17.1422 83.2735C15.4621 81.4908 13.1426 80.4485 10.694 80.376C8.24533 80.3034 5.86818 81.2066 4.08545 82.8867C2.30272 84.5669 1.26044 86.8864 1.1879 89.335C1.11537 91.7836 2.01851 94.1608 3.69866 95.9435L18.0949 111.219L33.3702 96.8225C34.2531 95.9907 34.9636 94.9931 35.4609 93.8867C35.9582 92.7803 36.2327 91.5867 36.2686 90.3742C36.3045 89.1617 36.1012 87.954 35.6702 86.8201C35.2393 85.6862 34.5891 84.6483 33.7569 83.7657Z" fill="#FE5101" stroke="#262185" stroke-linecap="round" stroke-linejoin="round"/>
    <path d="M37.5481 130.554L41.5511 114.402C41.9787 112.71 41.7367 110.918 40.8754 109.4C40.0141 107.882 38.6001 106.755 36.9281 106.253L29.5322 104.421L32.6331 91.908C32.8574 91.003 32.7129 90.0458 32.2313 89.2472C31.7498 88.4486 30.9707 87.8739 30.0654 87.6496C29.16 87.4252 28.2027 87.5696 27.404 88.0509C26.6052 88.5322 26.0305 89.3111 25.8062 90.2161L21.0139 109.554L19.1916 105.601C18.8144 104.75 18.1235 104.078 17.2628 103.725C16.4022 103.371 15.4383 103.364 14.5722 103.703C13.7061 104.043 13.0047 104.704 12.6142 105.548C12.2237 106.392 12.1742 107.355 12.4762 108.235L18.2051 125.761" fill="#F3F4F6"/>
    <path d="M37.5481 130.554L41.5511 114.402C41.9787 112.71 41.7367 110.918 40.8754 109.4C40.0141 107.882 38.6001 106.755 36.9281 106.253L29.5322 104.421L32.6331 91.908C32.8574 91.003 32.7129 90.0458 32.2313 89.2472C31.7498 88.4486 30.9707 87.8739 30.0654 87.6496C29.16 87.4252 28.2027 87.5696 27.404 88.0509C26.6052 88.5322 26.0305 89.3111 25.8062 90.2161L21.0139 109.554L19.1916 105.601C18.8144 104.75 18.1235 104.078 17.2628 103.725C16.4022 103.371 15.4383 103.364 14.5722 103.703C13.7061 104.043 13.0047 104.704 12.6142 105.548C12.2237 106.392 12.1742 107.355 12.4762 108.235L18.2051 125.761" stroke="black" stroke-linecap="round" stroke-linejoin="round"/>
    <path d="M583.799 66.0422C583.799 66.0422 580.732 66.0422 580.732 62.975C580.732 59.9078 583.799 50.7063 599.135 50.7063C614.471 50.7063 617.538 59.9078 617.538 62.975C617.538 66.0422 614.471 66.0422 614.471 66.0422H583.799ZM599.135 47.6391C601.575 47.6391 603.916 46.6697 605.641 44.9441C607.367 43.2184 608.337 40.878 608.337 38.4376C608.337 35.9972 607.367 33.6568 605.641 31.9311C603.916 30.2055 601.575 29.2361 599.135 29.2361C596.695 29.2361 594.354 30.2055 592.629 31.9311C590.903 33.6568 589.933 35.9972 589.933 38.4376C589.933 40.878 590.903 43.2184 592.629 44.9441C594.354 46.6697 596.695 47.6391 599.135 47.6391Z" fill="#262185"/>
    <path d="M682.993 43.071C682.993 43.071 679.926 43.071 679.926 40.0038C679.926 36.9366 682.993 27.7351 698.329 27.7351C713.665 27.7351 716.732 36.9366 716.732 40.0038C716.732 43.071 713.665 43.071 713.665 43.071H682.993ZM698.329 24.6679C700.769 24.6679 703.11 23.6985 704.835 21.9729C706.561 20.2473 707.53 17.9068 707.53 15.4664C707.53 13.026 706.561 10.6856 704.835 8.95996C703.11 7.23434 700.769 6.26489 698.329 6.26489C695.888 6.26489 693.548 7.23434 691.822 8.95996C690.097 10.6856 689.127 13.026 689.127 15.4664C689.127 17.9068 690.097 20.2473 691.822 21.9729C693.548 23.6985 695.888 24.6679 698.329 24.6679Z" fill="#4AA91C"/>
    <path d="M613.648 26.2594C617.355 22.3997 629.141 14.0298 646.619 11.4277C664.098 8.82558 675.569 12.7815 679.12 15.0848" stroke="#262185" stroke-dasharray="2 2"/>
    <path d="M634.77 6.10929C634.403 6.74458 634.165 7.44596 634.069 8.17334C633.973 8.90072 634.022 9.63986 634.212 10.3485C634.402 11.0572 634.729 11.7215 635.176 12.3035C635.623 12.8855 636.18 13.3738 636.815 13.7405L638.133 14.5017L637.372 15.82C636.631 17.1031 636.431 18.628 636.814 20.0591C637.198 21.4902 638.134 22.7104 639.417 23.4512C640.7 24.192 642.225 24.3928 643.656 24.0093C645.087 23.6258 646.307 22.6896 647.048 21.4064L653.396 10.4121L642.402 4.06451C641.766 3.69752 641.065 3.4593 640.337 3.36345C639.61 3.26761 638.871 3.31601 638.162 3.50589C637.454 3.69578 636.789 4.02344 636.207 4.47014C635.625 4.91684 635.137 5.47383 634.77 6.10929Z" fill="#FE5101" stroke="#262185" stroke-linecap="round" stroke-linejoin="round"/>
    <path d="M201.013 65.7814V81.5795C201.013 83.757 199.265 85.529 197.118 85.529C194.971 85.529 193.223 83.757 193.223 81.5795V74.9419L184.382 84.3727C182.856 85.9195 180.383 85.9195 178.872 84.3727C177.362 82.8259 177.347 80.3181 178.872 78.7863L187.329 69.746H181.627C179.479 69.746 177.732 67.9739 177.732 65.7964C177.732 63.619 179.479 61.8469 181.627 61.8469H197.059C194.941 61.877 193.223 63.634 193.223 65.7964C193.223 67.9589 194.763 69.5357 196.718 69.731H197.518C199.488 69.5357 201.013 67.8388 201.013 65.7964V65.7814Z" fill="#1A00F3"/>
    <path d="M216.519 65.7679C216.519 67.9454 214.771 69.7174 212.624 69.7174H197.518C199.488 69.5222 201.013 67.8252 201.013 65.7829C201.013 63.7406 199.31 61.8634 197.177 61.8334H197.044C194.926 61.8634 193.208 63.6204 193.208 65.7829V49.9698C193.208 47.7773 194.956 46.0203 197.103 46.0203C199.251 46.0203 200.998 47.7923 200.998 49.9698V56.5924L209.84 47.1601C211.365 45.6133 213.838 45.6133 215.349 47.1601C216.874 48.7068 216.874 51.2147 215.349 52.7465L206.893 61.7868H212.594C214.742 61.7868 216.489 63.5589 216.489 65.7363L216.519 65.7664V65.7679Z" fill="#1A00F3"/>
    <path d="M253.226 65.7814V81.5795C253.226 83.757 251.479 85.529 249.331 85.529C247.184 85.529 245.436 83.757 245.436 81.5795V74.9419L236.595 84.3727C235.069 85.9195 232.596 85.9195 231.085 84.3727C229.575 82.8259 229.56 80.3181 231.085 78.7863L239.542 69.746H233.84C231.693 69.746 229.945 67.9739 229.945 65.7964C229.945 63.619 231.693 61.8469 233.84 61.8469H249.272C247.154 61.877 245.436 63.634 245.436 65.7964C245.436 67.9589 246.976 69.5357 248.931 69.731H249.731C251.701 69.5357 253.226 67.8388 253.226 65.7964V65.7814Z" fill="#4AA91C"/>
    <path d="M268.732 65.7679C268.732 67.9454 266.984 69.7174 264.837 69.7174H249.731C251.701 69.5222 253.226 67.8252 253.226 65.7829C253.226 63.7406 251.523 61.8634 249.39 61.8334H249.257C247.139 61.8634 245.421 63.6204 245.421 65.7829V49.9698C245.421 47.7773 247.169 46.0203 249.316 46.0203C251.464 46.0203 253.211 47.7923 253.211 49.9698V56.5924L262.053 47.1601C263.578 45.6133 266.051 45.6133 267.562 47.1601C269.087 48.7068 269.087 51.2147 267.562 52.7465L259.106 61.7868H264.807C266.955 61.7868 268.702 63.5589 268.702 65.7363L268.732 65.7664V65.7679Z" fill="#4AA91C"/>
    <path d="M219.483 102.162L215.628 90.2493C215.37 89.4536 215.439 88.588 215.819 87.843C216.2 87.098 216.86 86.5346 217.656 86.2767C218.452 86.0189 219.317 86.0876 220.062 86.468C220.807 86.8483 221.371 87.5089 221.629 88.3047L224.002 95.6494L231.671 76.4738C231.825 76.0893 232.053 75.7389 232.342 75.4426C232.631 75.1462 232.976 74.9097 233.356 74.7466C233.737 74.5835 234.146 74.4969 234.56 74.4918C234.974 74.4868 235.385 74.5633 235.769 74.717C236.154 74.8708 236.504 75.0988 236.801 75.3879C237.097 75.6771 237.334 76.0218 237.497 76.4024C237.66 76.783 237.746 77.1919 237.751 77.606C237.757 78.02 237.68 78.431 237.526 78.8154L232.453 91.5016L238.308 93.8432C240.378 94.6713 242.035 96.2879 242.914 98.3375C243.792 100.387 243.821 102.702 242.993 104.772L240.651 110.627" fill="#F3F4F6"/>
    <path d="M219.483 102.162L215.628 90.2493C215.37 89.4536 215.439 88.588 215.819 87.843C216.2 87.098 216.86 86.5346 217.656 86.2767C218.452 86.0189 219.317 86.0876 220.062 86.468C220.807 86.8483 221.371 87.5089 221.629 88.3047L224.002 95.6494L231.671 76.4738C231.825 76.0893 232.053 75.7389 232.342 75.4426C232.631 75.1462 232.976 74.9097 233.356 74.7466C233.737 74.5835 234.146 74.4969 234.56 74.4918C234.974 74.4868 235.385 74.5633 235.769 74.717C236.154 74.8708 236.504 75.0988 236.801 75.3879C237.097 75.6771 237.334 76.0218 237.497 76.4024C237.66 76.783 237.746 77.1919 237.751 77.606C237.757 78.02 237.68 78.431 237.526 78.8154L232.453 91.5016L238.308 93.8432C240.378 94.6713 242.035 96.2879 242.914 98.3375C243.792 100.387 243.821 102.702 242.993 104.772L240.651 110.627" stroke="#262185" stroke-linecap="round" stroke-linejoin="round" stroke-dasharray="2 2"/>
    <path d="M201.506 109.432L191.551 101.839C190.885 101.332 190.449 100.581 190.337 99.7525C190.225 98.9236 190.447 98.0841 190.954 97.4188C191.461 96.7535 192.211 96.3169 193.04 96.2049C193.869 96.093 194.709 96.3149 195.374 96.8219L201.509 101.505L196.886 81.3772C196.793 80.9737 196.781 80.5558 196.85 80.1475C196.918 79.7392 197.067 79.3485 197.287 78.9976C197.506 78.6467 197.793 78.3425 198.131 78.1024C198.468 77.8623 198.849 77.6911 199.253 77.5984C199.656 77.5056 200.074 77.4933 200.483 77.5621C200.891 77.6309 201.282 77.7795 201.633 77.9993C201.983 78.2191 202.288 78.5058 202.528 78.8432C202.768 79.1805 202.939 79.5619 203.032 79.9654L206.091 93.2817L212.237 91.8699C214.41 91.3706 216.693 91.7552 218.582 92.939C220.472 94.1227 221.814 96.0088 222.314 98.1821L223.725 104.328" fill="#F3F4F6"/>
    <path d="M201.506 109.432L191.551 101.839C190.885 101.332 190.449 100.581 190.337 99.7525C190.225 98.9236 190.447 98.0841 190.954 97.4188C191.461 96.7535 192.211 96.3169 193.04 96.2049C193.869 96.093 194.709 96.3149 195.374 96.8219L201.509 101.505L196.886 81.3772C196.793 80.9737 196.781 80.5558 196.85 80.1475C196.918 79.7392 197.067 79.3485 197.287 78.9976C197.506 78.6467 197.793 78.3425 198.131 78.1024C198.468 77.8623 198.849 77.6911 199.253 77.5984C199.656 77.5056 200.074 77.4933 200.483 77.5621C200.891 77.6309 201.282 77.7795 201.633 77.9993C201.983 78.2191 202.288 78.5058 202.528 78.8432C202.768 79.1805 202.939 79.5619 203.032 79.9654L206.091 93.2817L212.237 91.8699C214.41 91.3706 216.693 91.7552 218.582 92.939C220.472 94.1227 221.814 96.0088 222.314 98.1821L223.725 104.328" stroke="#262185" stroke-linecap="round" stroke-linejoin="round"/>
    <path d="M64.2319 75.9999C69.7319 70.8332 86.9319 59.8999 111.732 57.4999C136.532 55.0999 152.399 61.4999 157.232 64.9999" stroke="#262185" stroke-dasharray="2 2"/>
    <path d="M451.732 50C457.409 45.655 475.164 36.4603 500.764 34.442C526.364 32.4236 542.743 37.8059 547.732 40.7493" stroke="#262185" stroke-dasharray="2 2"/>
    <path d="M289.732 52.0255C295.232 46.8589 312.432 35.9255 337.232 33.5255C362.032 31.1255 377.899 37.5255 382.732 41.0255" stroke="#262185" stroke-dasharray="2 2"/>
    <path d="M431.659 54.6189H392.076C389.775 54.6189 387.909 56.4844 387.909 58.7856V92.1189C387.909 94.4201 389.775 96.2855 392.076 96.2855H431.659C433.96 96.2855 435.826 94.4201 435.826 92.1189V58.7856C435.826 56.4844 433.96 54.6189 431.659 54.6189Z" fill="#F3F4F6" stroke="black" stroke-linecap="round" stroke-linejoin="round"/>
    <path d="M387.909 65.0356H435.826H387.909Z" fill="#F3F4F6"/>
    <path d="M387.909 65.0356H435.826" stroke="black" stroke-linecap="round" stroke-linejoin="round"/>
    <path d="M395.201 60.3481C394.913 60.3481 394.68 60.1149 394.68 59.8272C394.68 59.5396 394.913 59.3064 395.201 59.3064" fill="#F3F4F6"/>
    <path d="M395.201 60.3481C394.913 60.3481 394.68 60.1149 394.68 59.8272C394.68 59.5396 394.913 59.3064 395.201 59.3064" stroke="black"/>
    <path d="M395.201 60.3481C395.489 60.3481 395.722 60.1149 395.722 59.8272C395.722 59.5396 395.489 59.3064 395.201 59.3064" fill="#F3F4F6"/>
    <path d="M395.201 60.3481C395.489 60.3481 395.722 60.1149 395.722 59.8272C395.722 59.5396 395.489 59.3064 395.201 59.3064" stroke="black"/>
    <path d="M401.451 60.3481C401.163 60.3481 400.93 60.1149 400.93 59.8272C400.93 59.5396 401.163 59.3064 401.451 59.3064" fill="#F3F4F6"/>
    <path d="M401.451 60.3481C401.163 60.3481 400.93 60.1149 400.93 59.8272C400.93 59.5396 401.163 59.3064 401.451 59.3064" stroke="black"/>
    <path d="M401.451 60.3481C401.739 60.3481 401.972 60.1149 401.972 59.8272C401.972 59.5396 401.739 59.3064 401.451 59.3064" fill="#F3F4F6"/>
    <path d="M401.451 60.3481C401.739 60.3481 401.972 60.1149 401.972 59.8272C401.972 59.5396 401.739 59.3064 401.451 59.3064" stroke="black"/>
    <path d="M407.701 60.3481C407.413 60.3481 407.18 60.1149 407.18 59.8272C407.18 59.5396 407.413 59.3064 407.701 59.3064" fill="#F3F4F6"/>
    <path d="M407.701 60.3481C407.413 60.3481 407.18 60.1149 407.18 59.8272C407.18 59.5396 407.413 59.3064 407.701 59.3064" stroke="black"/>
    <path d="M407.701 60.3481C407.989 60.3481 408.222 60.1149 408.222 59.8272C408.222 59.5396 407.989 59.3064 407.701 59.3064" fill="#F3F4F6"/>
    <path d="M407.701 60.3481C407.989 60.3481 408.222 60.1149 408.222 59.8272C408.222 59.5396 407.989 59.3064 407.701 59.3064" stroke="black"/>
    <path d="M421.243 73.3689H404.576C403.425 73.3689 402.493 74.3016 402.493 75.4522V85.8689C402.493 87.0195 403.425 87.9522 404.576 87.9522H421.243C422.393 87.9522 423.326 87.0195 423.326 85.8689V75.4522C423.326 74.3016 422.393 73.3689 421.243 73.3689Z" fill="#FE5101" stroke="black" stroke-linecap="round" stroke-linejoin="round"/>
    <path d="M402.493 76.4858L410.826 81.2775C411.458 81.6408 412.174 81.8321 412.903 81.8321C413.632 81.8321 414.348 81.6408 414.98 81.2775L423.314 76.4858" fill="#FE5101"/>
    <path d="M402.493 76.4858L410.826 81.2775C411.458 81.6408 412.174 81.8321 412.903 81.8321C413.632 81.8321 414.348 81.6408 414.98 81.2775L423.314 76.4858" stroke="black" stroke-linecap="round" stroke-linejoin="round"/>
    <path d="M358.909 27.6509C363.926 26.6008 377.768 26.3461 392.997 33.7281C408.227 41.1102 415.163 50.4345 416.727 54.174" stroke="#262185" stroke-dasharray="2 2"/>
    <path d="M374.046 27.5085L348.981 15.8692C348.832 15.8011 348.665 15.7757 348.504 15.7963C348.343 15.8169 348.196 15.8827 348.082 15.9844C347.968 16.0862 347.894 16.2189 347.869 16.3644C347.845 16.5098 347.871 16.6608 347.945 16.7965L352.487 25.0213L374.046 27.5085Z" fill="#CFF54D" stroke="#262185" stroke-linecap="round" stroke-linejoin="round"/>
    <path d="M374.046 27.5085L355.863 36.4722C355.72 36.5419 355.559 36.5782 355.393 36.5779C355.228 36.5775 355.063 36.5406 354.913 36.4702C354.763 36.3999 354.632 36.2983 354.532 36.1742C354.433 36.0502 354.367 35.9075 354.34 35.7584L352.486 25.0213L374.046 27.5085Z" fill="#CFF54D" stroke="#262185" stroke-linecap="round" stroke-linejoin="round"/>
    <path d="M352.487 25.0212L347.089 29.2709C346.994 29.3458 346.931 29.4481 346.909 29.5619C346.887 29.6757 346.907 29.7948 346.967 29.9008C347.026 30.0067 347.122 30.0937 347.238 30.1483C347.355 30.2029 347.487 30.222 347.613 30.2028L353.232 29.3383" fill="#CFF54D"/>
    <path d="M352.487 25.0212L347.089 29.2709C346.994 29.3458 346.931 29.4481 346.909 29.5619C346.887 29.6757 346.907 29.7948 346.967 29.9008C347.026 30.0067 347.122 30.0937 347.238 30.1483C347.355 30.2029 347.487 30.222 347.613 30.2028L353.232 29.3383" stroke="#262185" stroke-linecap="round" stroke-linejoin="round"/>
</svg>