<svg width="33" height="34" viewBox="0 0 33 34" fill="none" xmlns="http://www.w3.org/2000/svg">
<path d="M19.8075 17.0129V30.6C19.8075 32.4727 18.3207 33.9967 16.4937 33.9967C14.6667 33.9967 13.1798 32.4727 13.1798 30.6V24.8913L5.6575 33.0022C4.35968 34.3325 2.25544 34.3325 0.970217 33.0022C-0.315005 31.6719 -0.327606 29.5151 0.970217 28.1977L8.16494 20.4226H3.31386C1.48683 20.4226 0 18.8985 0 17.0258C0 15.1531 1.48683 13.629 3.31386 13.629H16.4433C14.6415 13.6549 13.1798 15.166 13.1798 17.0258C13.1798 18.8856 14.4903 20.2417 16.1535 20.4097H16.8339C18.5097 20.2417 19.8075 18.7823 19.8075 17.0258V17.0129Z" fill="#262185"/>
<path d="M33.0002 17.0013C33.0002 18.874 31.5134 20.398 29.6864 20.398H16.8341C18.51 20.2301 19.8078 18.7707 19.8078 17.0142C19.8078 15.2577 18.3588 13.6433 16.5443 13.6174H16.4309C14.6291 13.6433 13.1675 15.1544 13.1675 17.0142V3.4142C13.1675 1.52855 14.6543 0.0174359 16.4813 0.0174359C18.3084 0.0174359 19.7952 1.54146 19.7952 3.4142V9.10993L27.3175 0.99772C28.6153 -0.332573 30.7196 -0.332573 32.0048 0.99772C33.3026 2.32801 33.3026 4.4849 32.0048 5.80227L24.8101 13.5774H29.6612C31.4882 13.5774 32.975 15.1014 32.975 16.9742L33.0002 17V17.0013Z" fill="#262185"/>
</svg>
