<svg width="454" height="125" viewBox="0 0 454 125" fill="none" xmlns="http://www.w3.org/2000/svg">
<path d="M73.9574 49.9774V62.4439C73.9574 55.6182 68.547 50.0722 61.7723 49.9774H73.9574Z" fill="#262185"/>
<path d="M73.9573 62.4393V112.305C73.9573 119.178 68.4058 124.772 61.584 124.772C54.7623 124.772 49.2108 119.178 49.2108 112.305V91.354L21.1239 121.122C16.2781 126.004 8.42135 126.004 3.62259 121.122C-1.17617 116.24 -1.22321 108.324 3.62259 103.489L30.4862 74.9532H12.3733C5.5515 74.9532 0 69.3598 0 62.4867C0 55.6135 5.5515 50.0201 12.3733 50.0201H61.3959C54.6682 50.1149 49.2108 55.6609 49.2108 62.4867C49.2108 69.3124 54.1036 74.2896 60.3138 74.9058H62.8543C69.1115 74.2896 73.9573 68.9332 73.9573 62.4867V62.4393Z" fill="#262185"/>
<path d="M49.2103 74.8631V62.444C49.2103 68.8905 54.1032 74.2469 60.3133 74.8631H49.2103Z" fill="#262185"/>
<path d="M123.215 62.3966C123.215 69.2697 117.664 74.8631 110.842 74.8631H62.8544C69.1116 74.2468 73.9574 68.8905 73.9574 62.444C73.9574 55.9974 68.547 50.0722 61.7723 49.9774H61.3489C54.6212 50.0722 49.1638 55.6182 49.1638 62.444V12.5305C49.1638 5.60993 54.7153 0.0639918 61.5371 0.0639918C68.3588 0.0639918 73.9103 5.65733 73.9103 12.5305V33.4344L101.997 3.66174C106.843 -1.22058 114.7 -1.22058 119.499 3.66174C124.344 8.54406 124.344 16.4601 119.499 21.295L92.6349 49.8305H110.748C117.57 49.8305 123.121 55.4238 123.121 62.297L123.215 62.3918V62.3966Z" fill="#262185"/>
<path d="M62.8544 74.8629C62.4309 74.8629 62.0075 74.9103 61.5841 74.9103C61.1607 74.9103 60.7373 74.9103 60.3138 74.8629H62.8544Z" fill="#F7EEC6"/>
<path d="M153.56 30.3534H164.051L163.769 37.3213H163.816C165.039 32.9604 167.721 29.9268 172.661 29.9268C177.601 29.9268 180.706 32.3916 181.365 36.9895H181.412C182.494 32.8182 185.364 29.9268 190.256 29.9268C195.149 29.9268 199.101 33.5292 199.101 39.9284V56.7558H188.61V42.5829C188.61 40.118 187.481 38.7434 185.458 38.7434C183.435 38.7434 181.459 40.5446 181.459 44.3367V56.7558H170.967V42.5829C170.967 40.118 169.932 38.7434 167.815 38.7434C165.698 38.7434 163.957 40.6394 163.957 44.4789V56.7558H153.466V30.3534H153.56Z" fill="#262185"/>
<path d="M204.135 30.3534H214.626L214.297 37.748H214.391C215.473 33.0552 217.967 29.9268 223 29.9268C228.034 29.9268 231.187 33.3396 231.187 40.4498C231.187 47.56 231.045 45.0477 230.904 46.5646H221.871C221.965 45.3321 221.965 43.9101 221.965 43.1043C221.965 40.0706 220.836 38.8382 218.907 38.8382C216.979 38.8382 214.626 41.0186 214.626 45.7114V56.8032H204.135V30.4008V30.3534Z" fill="#262185"/>
<path d="M254.663 40.0232C254.663 37.6058 253.158 36.3734 250.617 36.3734C248.077 36.3734 246.571 37.5584 246.101 40.6869H254.663V39.9758V40.0232ZM263.649 45.0478H246.007C246.289 48.8399 247.794 50.2619 250.664 50.2619C253.534 50.2619 254.522 49.3139 254.71 47.0386H263.696C263.602 53.2956 258.991 57.1351 250.241 57.1351C241.49 57.1351 235.468 51.6839 235.468 43.7679C235.468 35.8519 241.161 29.8794 250.335 29.8794C259.509 29.8794 263.696 34.0507 263.696 42.5355V45.0004L263.649 45.0478Z" fill="#262185"/>
<path d="M269.059 19.9253H277.904L279.692 24.2388H279.786L281.573 19.9253H290.418L285.055 27.9835H274.328L268.965 19.9253H269.059ZM267.365 50.4517L278.609 38.4118V38.317H267.789V30.3536H291.688V36.5631L280.35 48.7452C280.35 48.7926 291.688 48.7926 291.688 48.7926V56.756H267.365V50.4517Z" fill="#262185"/>
<path d="M313.753 47.2282V46.5172H308.343C306.602 46.5172 305.567 47.3704 305.567 48.6502C305.567 49.9301 306.837 51.1625 308.954 51.1625C311.071 51.1625 313.753 49.7405 313.753 47.1808V47.2282ZM296.016 49.456C296.016 45.2847 298.839 42.2511 305.332 42.2511H313.706V40.3076C313.706 37.8428 312.436 36.7999 309.66 36.7999C306.884 36.7999 306.037 37.8902 306.037 39.6914C306.037 41.4926 306.037 40.2128 306.084 40.7816H296.91C296.816 40.2602 296.769 39.5966 296.769 39.0278C296.769 33.4344 301.192 29.9268 310.177 29.9268C319.163 29.9268 324.197 34.1929 324.197 41.2082V56.7558H313.706C313.847 55.6182 314.035 53.3903 314.035 51.7313H313.988C313.188 55.0494 310.601 57.1824 305.708 57.1824C300.815 57.1824 296.016 54.054 296.016 49.5034V49.456Z" fill="#262185"/>
<path d="M154.595 90.4581H158.5C158.5 93.9658 160.617 96.0514 166.074 96.0514C171.532 96.0514 174.072 94.3924 174.072 91.5483C174.072 88.7042 173.743 89.4627 172.426 88.799C171.202 88.2302 168.427 87.8984 165.227 87.5666C160.946 87.1874 158.312 86.666 156.759 85.481C155.301 84.3907 154.595 82.4947 154.595 80.5512C154.595 75.5741 159.111 72.3508 166.121 72.3508C173.131 72.3508 177.271 75.8111 177.271 81.7363H173.32C173.272 77.802 170.92 75.9533 166.263 75.9533C161.605 75.9533 158.829 77.6124 158.829 80.2194C158.829 82.8265 158.97 82.5895 160.523 83.2057C161.793 83.7271 164.381 84.0589 167.862 84.4381C171.955 84.8647 173.978 85.2439 175.766 86.2394C177.507 87.2348 178.354 89.2731 178.354 91.2639C178.354 96.4306 174.119 99.5591 166.168 99.5591C158.218 99.5591 154.595 95.3878 154.595 90.3159V90.4581Z" fill="#262185"/>
<path d="M205.922 86.1399C205.922 80.1673 202.441 76.2804 196.889 76.2804C191.338 76.2804 187.856 80.1199 187.856 86.1399C187.856 92.1598 191.338 95.8571 196.889 95.8571C202.441 95.8571 205.922 92.065 205.922 86.1399ZM183.622 86.1399C183.622 77.7972 188.75 72.4409 196.889 72.4409C205.028 72.4409 210.157 77.7972 210.157 86.1399C210.157 94.4825 205.028 99.744 196.889 99.744C188.75 99.744 183.622 94.4351 183.622 86.1399Z" fill="#262185"/>
<path d="M216.79 62.2544H221.024V99.2747H216.79V62.2544ZM229.022 72.8675H233.256V99.27H229.022V72.8675ZM228.834 64.0983H233.397V69.502H228.834V64.0983Z" fill="#262185"/>
<path d="M262.519 86.3767V85.0495C262.519 79.6931 258.85 76.2803 253.063 76.2803C247.276 76.2803 244.077 80.4042 244.077 85.9027C244.077 91.4012 247.558 95.8569 252.969 95.8569C258.379 95.8569 262.472 92.1597 262.472 86.3767H262.519ZM239.89 85.9027C239.89 78.0341 244.783 72.4408 252.734 72.4408C260.684 72.4408 261.531 74.6686 262.519 78.1763H262.566V62.2495H266.801V99.2698H262.566C262.707 96.8998 262.754 94.5771 262.849 92.2071H262.754C261.767 96.7576 258.238 99.6964 252.404 99.6964C246.57 99.6964 239.937 94.1505 239.937 85.9027H239.89Z" fill="#262185"/>
<path d="M293.665 88.2302V87.851H283.362C279.081 87.851 277.387 89.1308 277.387 91.6905C277.387 94.2501 279.834 96.0514 283.974 96.0514C289.902 96.0514 293.665 93.0177 293.665 88.1828V88.2302ZM273.388 91.6905C273.388 87.9458 275.976 84.7225 282.986 84.7225H293.665V82.7791C293.665 78.2285 291.031 76.0481 285.667 76.0481C280.304 76.0481 278.187 77.8493 278.187 81.4518C278.187 85.0543 278.187 81.9732 278.234 82.3998H274.329C274.282 82.0206 274.235 81.2622 274.235 80.7882C274.235 75.5267 278.704 72.3982 285.809 72.3982C292.913 72.3982 297.947 76.2377 297.947 83.1583V99.2747H293.712C293.759 98.0422 293.854 95.5774 293.948 93.0177H293.901C293.007 97.0942 289.713 99.7013 283.174 99.7013C276.634 99.7013 273.482 96.6676 273.482 91.6905H273.388Z" fill="#262185"/>
<path d="M305.098 72.8675H309.332L309.238 80.4991H309.285C310.508 75.9012 313.19 72.4409 318.835 72.4409C324.481 72.4409 327.868 76.3752 327.868 82.7744C327.868 89.1735 327.727 86.5191 327.586 87.4671H323.728C323.822 86.6613 323.916 85.334 323.916 83.675C323.916 78.7927 322.128 76.2804 317.8 76.2804C313.472 76.2804 309.332 80.9731 309.332 87.5619V99.27H305.098V72.8675Z" fill="#262185"/>
<path d="M334.218 72.8675H338.452L338.358 79.9777H338.405C339.817 75.3798 343.486 72.4409 349.744 72.4409C356.001 72.4409 360.706 76.47 360.706 82.7744V99.27H356.471V83.675C356.471 79.1719 353.931 76.2804 348.285 76.2804C342.64 76.2804 338.405 79.9777 338.405 86.2821V99.27H334.171V72.8675H334.218Z" fill="#262185"/>
<path d="M389.122 86.1399C389.122 80.1673 385.64 76.2804 380.089 76.2804C374.537 76.2804 371.056 80.1199 371.056 86.1399C371.056 92.1598 374.537 95.8571 380.089 95.8571C385.64 95.8571 389.122 92.065 389.122 86.1399ZM366.822 86.1399C366.822 77.7972 371.95 72.4409 380.089 72.4409C388.228 72.4409 393.356 77.7972 393.356 86.1399C393.356 94.4825 388.228 99.744 380.089 99.744C371.95 99.744 366.822 94.4351 366.822 86.1399Z" fill="#262185"/>
<path d="M398.296 90.4581H402.201C402.201 93.9658 404.318 96.0514 409.776 96.0514C415.233 96.0514 417.773 94.3924 417.773 91.5483C417.773 88.7042 417.444 89.4627 416.127 88.799C414.904 88.2302 412.128 87.8984 408.929 87.5666C404.647 87.1874 402.013 86.666 400.46 85.481C399.049 84.3907 398.296 82.4947 398.296 80.5512C398.296 75.5741 402.813 72.3508 409.823 72.3508C416.833 72.3508 420.973 75.8111 420.973 81.7363H417.068C417.021 77.802 414.668 75.9533 410.011 75.9533C405.353 75.9533 402.577 77.6124 402.577 80.2194C402.577 82.8265 402.719 82.5895 404.271 83.2057C405.541 83.7271 408.129 84.0589 411.61 84.4381C415.703 84.8647 417.726 85.2439 419.514 86.2394C421.255 87.2348 422.102 89.2731 422.102 91.2639C422.102 96.4306 417.868 99.5591 409.917 99.5591C401.966 99.5591 398.343 95.3878 398.343 90.3159L398.296 90.4581Z" fill="#262185"/>
<path d="M429.77 89.6048V76.6169H425.442V72.8722H428.924C429.77 72.8722 430.1 72.4456 430.194 71.071L430.382 66.8997H434.005V72.8722H443.508V76.6169H434.005V89.3204C434.005 93.3495 435.275 95.7196 439.227 95.7196C443.179 95.7196 442.708 95.3878 443.32 95.1982V98.8481C442.52 99.1799 440.968 99.5117 438.85 99.5117C432.499 99.5117 429.77 95.4352 429.77 89.6048Z" fill="#262185"/>
<path d="M449.577 72.8674H453.811V99.2698H449.577V72.8674ZM449.389 64.0981H453.952V69.5019H449.389V64.0981Z" fill="#262185"/>
</svg>
