<svg width="146" height="40" viewBox="0 0 146 40" fill="none" xmlns="http://www.w3.org/2000/svg">
    <path d="M23.7861 16.0205V20.0167C23.7861 17.8287 22.0461 16.0509 19.8672 16.0205H23.7861Z" fill="#F9F3DC"/>
    <path d="M23.7861 20.0152V36C23.7861 38.2032 22.0006 39.9962 19.8066 39.9962C17.6126 39.9962 15.8272 38.2032 15.8272 36V29.2839L6.79387 38.8262C5.23537 40.3912 2.70847 40.3912 1.1651 38.8262C-0.378278 37.2611 -0.393409 34.7236 1.1651 33.1738L9.80497 24.0266H3.97948C1.78547 24.0266 0 22.2336 0 20.0304C0 17.8272 1.78547 16.0342 3.97948 16.0342H19.7461C17.5824 16.0646 15.8272 17.8423 15.8272 20.0304C15.8272 22.2184 17.4008 23.8139 19.3981 24.0114H20.2152C22.2276 23.8139 23.7861 22.0969 23.7861 20.0304V20.0152Z" fill="#F9F3DC"/>
    <path d="M15.8262 23.9977V20.0167C15.8262 22.0832 17.3998 23.8002 19.3971 23.9977H15.8262Z" fill="#F9F3DC"/>
    <path d="M39.6289 20.0015C39.6289 22.2047 37.8434 23.9977 35.6494 23.9977H20.2157C22.2281 23.8002 23.7866 22.0832 23.7866 20.0167C23.7866 17.9502 22.0465 16.0509 19.8676 16.0205H19.7315C17.5677 16.0509 15.8125 17.8287 15.8125 20.0167V4.01671C15.8125 1.79829 17.598 0.0205129 19.792 0.0205129C21.986 0.0205129 23.7715 1.81348 23.7715 4.01671V10.7176L32.8048 1.17379C34.3633 -0.391263 36.8902 -0.391263 38.4335 1.17379C39.992 2.73884 39.992 5.27635 38.4335 6.82621L29.7937 15.9734H35.6191C37.8132 15.9734 39.5986 17.7664 39.5986 19.9696L39.6289 20V20.0015Z" fill="#F9F3DC"/>
    <path d="M20.2155 23.9977C20.0793 23.9977 19.9432 24.0129 19.807 24.0129C19.6708 24.0129 19.5346 24.0129 19.3984 23.9977H20.2155Z" fill="#F7EEC6"/>
    <path d="M49.3877 9.72989H52.7619L52.6711 11.9635H52.6863C53.0797 10.5656 53.9422 9.59314 55.5309 9.59314C57.1197 9.59314 58.1183 10.3833 58.3302 11.8571H58.3453C58.6933 10.52 59.6163 9.59314 61.19 9.59314C62.7636 9.59314 64.0346 10.7479 64.0346 12.7992V18.1933H60.6604V13.6501C60.6604 12.86 60.2972 12.4194 59.6466 12.4194C58.9959 12.4194 58.3604 12.9967 58.3604 14.2123V18.1933H54.9862V13.6501C54.9862 12.86 54.6533 12.4194 53.9724 12.4194C53.2915 12.4194 52.7317 13.0271 52.7317 14.2579V18.1933H49.3574V9.72989H49.3877Z" fill="#F9F3DC"/>
    <path d="M65.6543 9.72989H69.0285L68.9226 12.1003H68.9529C69.3009 10.596 70.1028 9.59314 71.7219 9.59314C73.3409 9.59314 74.3547 10.6872 74.3547 12.9664C74.3547 15.2456 74.3093 14.4402 74.2639 14.9265H71.3587C71.389 14.5314 71.389 14.0756 71.389 13.8173C71.389 12.8448 71.0258 12.4497 70.4055 12.4497C69.7851 12.4497 69.0285 13.1487 69.0285 14.653V18.2085H65.6543V9.74509V9.72989Z" fill="#F9F3DC"/>
    <path d="M81.904 12.8297C81.904 12.0547 81.4198 11.6597 80.6027 11.6597C79.7856 11.6597 79.3014 12.0395 79.1501 13.0424H81.904V12.8145V12.8297ZM84.794 14.4403H79.1198C79.2106 15.6559 79.6948 16.1117 80.6178 16.1117C81.5408 16.1117 81.8586 15.8078 81.9191 15.0785H84.8091C84.7789 17.0842 83.296 18.3149 80.4816 18.3149C77.6673 18.3149 75.7305 16.5676 75.7305 14.03C75.7305 11.4925 77.5613 9.578 80.5119 9.578C83.4625 9.578 84.8091 10.9151 84.8091 13.635V14.4251L84.794 14.4403Z" fill="#F9F3DC"/>
    <path d="M86.535 6.38721H89.3796L89.9546 7.76992H89.9848L90.5598 6.38721H93.4045L91.6795 8.9703H88.2296L86.5047 6.38721H86.535ZM85.9902 16.1726L89.6066 12.3131V12.2827H86.1264V9.73004H93.813V11.7205L90.1664 15.6256C90.1664 15.6408 93.813 15.6408 93.813 15.6408V18.1935H85.9902V16.1726Z" fill="#F9F3DC"/>
    <path d="M100.91 15.1392V14.9113H99.1694C98.6096 14.9113 98.2767 15.1848 98.2767 15.595C98.2767 16.0053 98.6852 16.4004 99.3661 16.4004C100.047 16.4004 100.91 15.9445 100.91 15.124V15.1392ZM95.2051 15.8533C95.2051 14.5162 96.1129 13.5438 98.201 13.5438H100.894V12.9208C100.894 12.1307 100.486 11.7964 99.5931 11.7964C98.7004 11.7964 98.428 12.1458 98.428 12.7232C98.428 13.3006 98.428 12.8904 98.4431 13.0727H95.4926C95.4623 12.9056 95.4472 12.6929 95.4472 12.5105C95.4472 10.7175 96.8695 9.59314 99.7596 9.59314C102.65 9.59314 104.269 10.9607 104.269 13.2095V18.1933H100.894C100.94 17.8287 101 17.1145 101 16.5827H100.985C100.728 17.6463 99.8957 18.3301 98.3221 18.3301C96.7485 18.3301 95.2051 17.3272 95.2051 15.8685V15.8533Z" fill="#F9F3DC"/>
    <path d="M49.7207 28.9967H50.9766C50.9766 30.1212 51.6575 30.7897 53.4127 30.7897C55.1679 30.7897 55.985 30.2579 55.985 29.3462C55.985 28.4345 55.8791 28.6777 55.4554 28.4649C55.062 28.2826 54.1692 28.1762 53.1403 28.0699C51.7634 27.9483 50.9161 27.7812 50.4167 27.4013C49.9477 27.0518 49.7207 26.444 49.7207 25.8211C49.7207 24.2256 51.1733 23.1924 53.4278 23.1924C55.6824 23.1924 57.0139 24.3016 57.0139 26.2009H55.7429C55.7278 24.9398 54.9712 24.3472 53.4732 24.3472C51.9752 24.3472 51.0825 24.879 51.0825 25.7147C51.0825 26.5504 51.1279 26.4744 51.6272 26.672C52.0358 26.8391 52.868 26.9455 53.9877 27.067C55.3041 27.2038 55.9547 27.3253 56.5297 27.6444C57.0896 27.9635 57.3619 28.6169 57.3619 29.2551C57.3619 30.9113 56.0001 31.9141 53.443 31.9141C50.8858 31.9141 49.7207 30.577 49.7207 28.9512V28.9967Z" fill="#F9F3DC"/>
    <path d="M66.2288 27.6126C66.2288 25.698 65.1091 24.4521 63.3236 24.4521C61.5381 24.4521 60.4184 25.6829 60.4184 27.6126C60.4184 29.5423 61.5381 30.7275 63.3236 30.7275C65.1091 30.7275 66.2288 29.5119 66.2288 27.6126ZM59.0566 27.6126C59.0566 24.9383 60.7059 23.2213 63.3236 23.2213C65.9413 23.2213 67.5906 24.9383 67.5906 27.6126C67.5906 30.2868 65.9413 31.9734 63.3236 31.9734C60.7059 31.9734 59.0566 30.2716 59.0566 27.6126Z" fill="#F9F3DC"/>
    <path d="M69.7246 19.9559H71.0864V31.823H69.7246V19.9559ZM73.6587 23.358H75.0205V31.8215H73.6587V23.358ZM73.5982 20.547H75.0659V22.2792H73.5982V20.547Z" fill="#F9F3DC"/>
    <path d="M84.4304 27.6884V27.263C84.4304 25.546 83.2502 24.452 81.3891 24.452C79.5279 24.452 78.499 25.7739 78.499 27.5365C78.499 29.2991 79.6187 30.7274 81.3588 30.7274C83.0989 30.7274 84.4153 29.5422 84.4153 27.6884H84.4304ZM77.1523 27.5365C77.1523 25.0142 78.726 23.2212 81.2831 23.2212C83.8403 23.2212 84.1127 23.9353 84.4304 25.0598H84.4455V19.9543H85.8073V31.8214H84.4455C84.4909 31.0617 84.5061 30.3171 84.5363 29.5574H84.5061C84.1883 31.0161 83.0535 31.9581 81.1772 31.9581C79.301 31.9581 77.1675 30.1804 77.1675 27.5365H77.1523Z" fill="#F9F3DC"/>
    <path d="M94.4492 28.2827V28.1611H91.1355C89.7586 28.1611 89.2139 28.5714 89.2139 29.3919C89.2139 30.2124 90.0007 30.7898 91.3322 30.7898C93.2388 30.7898 94.4492 29.8173 94.4492 28.2675V28.2827ZM87.9277 29.3919C87.9277 28.1915 88.7599 27.1583 91.0145 27.1583H94.4492V26.5353C94.4492 25.0766 93.6019 24.3776 91.877 24.3776C90.152 24.3776 89.4711 24.955 89.4711 26.1098C89.4711 27.2646 89.4711 26.277 89.4862 26.4137H88.2304C88.2152 26.2922 88.2001 26.049 88.2001 25.8971C88.2001 24.2105 89.6375 23.2076 91.9223 23.2076C94.2071 23.2076 95.8262 24.4384 95.8262 26.6568V31.823H94.4644C94.4795 31.428 94.5098 30.6378 94.54 29.8173H94.5249C94.2374 31.1241 93.1782 31.9598 91.075 31.9598C88.9718 31.9598 87.958 30.9873 87.958 29.3919H87.9277Z" fill="#F9F3DC"/>
    <path d="M98.125 23.3581H99.4868L99.4565 25.8044H99.4717C99.8651 24.3305 100.728 23.2213 102.543 23.2213C104.359 23.2213 105.448 24.4825 105.448 26.5338C105.448 28.585 105.403 27.7341 105.358 28.038H104.117C104.147 27.7797 104.177 27.3543 104.177 26.8225C104.177 25.2574 103.602 24.4521 102.21 24.4521C100.818 24.4521 99.4868 25.9564 99.4868 28.0684V31.8215H98.125V23.3581Z" fill="#F9F3DC"/>
    <path d="M107.492 23.3581H108.853L108.823 25.6373H108.838C109.292 24.1634 110.473 23.2213 112.485 23.2213C114.497 23.2213 116.011 24.5129 116.011 26.5338V31.8215H114.649V26.8225C114.649 25.379 113.832 24.4521 112.016 24.4521C110.2 24.4521 108.838 25.6373 108.838 27.6582V31.8215H107.477V23.3581H107.492Z" fill="#F9F3DC"/>
    <path d="M125.149 27.6126C125.149 25.698 124.029 24.4521 122.244 24.4521C120.458 24.4521 119.338 25.6829 119.338 27.6126C119.338 29.5423 120.458 30.7275 122.244 30.7275C124.029 30.7275 125.149 29.5119 125.149 27.6126ZM117.977 27.6126C117.977 24.9383 119.626 23.2213 122.244 23.2213C124.861 23.2213 126.511 24.9383 126.511 27.6126C126.511 30.2868 124.861 31.9734 122.244 31.9734C119.626 31.9734 117.977 30.2716 117.977 27.6126Z" fill="#F9F3DC"/>
    <path d="M128.1 28.9967H129.355C129.355 30.1212 130.036 30.7897 131.792 30.7897C133.547 30.7897 134.364 30.2579 134.364 29.3462C134.364 28.4345 134.258 28.6777 133.834 28.4649C133.441 28.2826 132.548 28.1762 131.519 28.0699C130.142 27.9483 129.295 27.7812 128.796 27.4013C128.342 27.0518 128.1 26.444 128.1 25.8211C128.1 24.2256 129.552 23.1924 131.807 23.1924C134.061 23.1924 135.393 24.3016 135.393 26.2009H134.137C134.122 24.9398 133.365 24.3472 131.867 24.3472C130.369 24.3472 129.477 24.879 129.477 25.7147C129.477 26.5504 129.522 26.4744 130.021 26.672C130.43 26.8391 131.262 26.9455 132.382 27.067C133.698 27.2038 134.349 27.3253 134.924 27.6444C135.484 27.9635 135.756 28.6169 135.756 29.2551C135.756 30.9113 134.394 31.9141 131.837 31.9141C129.28 31.9141 128.115 30.577 128.115 28.9512L128.1 28.9967Z" fill="#F9F3DC"/>
    <path d="M138.222 28.7232V24.5599H136.83V23.3595H137.95C138.222 23.3595 138.328 23.2227 138.358 22.7821L138.419 21.4449H139.584V23.3595H142.64V24.5599H139.584V28.632C139.584 29.9236 139.992 30.6833 141.263 30.6833C142.535 30.6833 142.383 30.5769 142.58 30.5162V31.6862C142.323 31.7925 141.823 31.8989 141.142 31.8989C139.1 31.8989 138.222 30.5921 138.222 28.7232Z" fill="#F9F3DC"/>
    <path d="M144.594 23.358H145.956V31.8214H144.594V23.358ZM144.533 20.547H146.001V22.2792H144.533V20.547Z" fill="#F9F3DC"/>
</svg>
